<?xml version="1.0" encoding="UTF-8" standalone="no"?>
<svg
   id="barcode"
   width="3.37in"
   height="2.125in"
   x="0px"
   y="0px"
   viewBox="0 0 323.51999 204"
   version="1.1"
   xmlns="http://www.w3.org/2000/svg"
   xmlns:svg="http://www.w3.org/2000/svg">
  <defs
     id="defs284">
    <clipPath
       clipPathUnits="userSpaceOnUse"
       id="clipPath3726">
      <path
         d="m 0,131.36796 h 283.465 v 136.8 H 0 Z"
         id="path3724" />
    </clipPath>
    <clipPath
       clipPathUnits="userSpaceOnUse"
       id="clipPath3744">
      <path
         d="m 0,270.30896 h 283.465 v -141.732 H 0 Z"
         id="path3742" />
    </clipPath>
    <clipPath
       clipPathUnits="userSpaceOnUse"
       id="clipPath3726-6">
      <path
         d="m 0,131.36796 h 283.465 v 136.8 H 0 Z"
         id="path3724-7" />
    </clipPath>
    <clipPath
       clipPathUnits="userSpaceOnUse"
       id="clipPath3744-5">
      <path
         d="m 0,270.30896 h 283.465 v -141.732 H 0 Z"
         id="path3742-3" />
    </clipPath>
  </defs>
  <g
     id="layer4">
    <g
       id="barcode_group"
       transform="scale(4.48 3) translate(-7.5 -0.3)">
    </g>
  </g>
  <g
     id="layer3"
     style="display:inline">
    <path
       style="fill:#ffffff;fill-opacity:1;stroke:none;stroke-width:1px;stroke-linecap:butt;stroke-linejoin:miter;stroke-opacity:1"
       d="M 1.8297563,123.0856 218.90602,154.156 H 321.888 v 47.88822 L 3.5386426,202.47288 Z"
       id="path2798" />
    <text
       xml:space="preserve"
       style="font-style:normal;font-variant:normal;font-weight:normal;font-stretch:normal;font-size:17.2045px;line-height:1.25;font-family:'Alegreya Sans';-inkscape-font-specification:'Alegreya Sans';text-align:end;letter-spacing:0px;word-spacing:0px;text-anchor:end;display:inline;fill:#000000;fill-opacity:1;stroke:none;stroke-width:0.430111"
       x="314.07568"
       y="174.38844"
       id="name"><tspan
         id="first_row"
         x="314.07568"
         y="174.38844"
         style="font-style:normal;font-variant:normal;font-weight:bold;font-stretch:normal;font-family:'Alegreya Sans';-inkscape-font-specification:'Alegreya Sans Bold';stroke-width:0.430111">Chilton</tspan><tspan
         x="314.07568"
         y="195.89407"
         id="second_row"
         style="font-style:normal;font-variant:normal;font-weight:normal;font-stretch:normal;font-family:'Alegreya Sans';-inkscape-font-specification:'Alegreya Sans';stroke-width:0.430111">Patrick</tspan></text>
    <path
       style="fill:none;stroke:#cecece;stroke-width:0.755906;stroke-linecap:butt;stroke-linejoin:miter;stroke-dasharray:none;stroke-opacity:1"
       d="M 9.9779528,0.37795299 H 0.37795275 V 9.977953"
       id="path13483" />
    <path
       style="fill:none;stroke:#cecece;stroke-width:0.755906;stroke-linecap:butt;stroke-linejoin:miter;stroke-dasharray:none;stroke-opacity:1"
       d="M 9.9779528,203.6 H 0.37795275 V 194"
       id="path13494" />
    <path
       style="fill:none;stroke:#cecece;stroke-width:0.755906;stroke-linecap:butt;stroke-linejoin:miter;stroke-dasharray:none;stroke-opacity:1"
       d="m 313.25,203.6 h 9.6 V 194"
       id="path13496" />
    <path
       style="fill:none;stroke:#cecece;stroke-width:0.755906;stroke-linecap:butt;stroke-linejoin:miter;stroke-dasharray:none;stroke-opacity:1"
       d="m 313.25,0.385 h 9.6 V 9.977953"
       id="path13507" />
  </g>
  <g
     id="layer1"
     transform="matrix(0.66699092,0,0,0.66699092,4.1738989,2.618983)"
     style="fill:#ffffff">
    <g
       id="g574"
       transform="matrix(0.84256607,0,0,0.84256607,-7.7549071,188.22727)">
      <title
         id="title507">Layer 1</title>
      <g
         id="layer1-5">
        <g
           id="layer1-4"
           transform="matrix(0.86872531,0,0,0.79617561,99.397642,88.709071)">
          <g
             id="g3718"
             transform="matrix(1.1421588,0,0,-1.1421588,-111.23222,216.21671)">
            <g
               id="g3720">
              <g
                 id="g3722"
                 clip-path="url(#clipPath3726-6)">
                <g
                   id="g3728">
                  <g
                     id="g3730"
                     transform="matrix(292.56001,0,0,136.80001,-4.5477223,2.7911353)" />
                </g>
              </g>
            </g>
            <g
               id="g3738">
              <g
                 id="g3740"
                 clip-path="url(#clipPath3744-5)">
                <g
                   id="g3746">
                  <path
                     fill="#000000"
                     fill-rule="nonzero"
                     d="m 45.28681,227.35517 -1.04,-4.745 -0.585,-0.13 c -2.904,2.426 -6.24,3.64 -10.01,3.64 -4.117,0 -7.28,-1.42 -9.49,-4.258 -2.21,-2.838 -3.315,-6.987 -3.315,-12.447 0,-5.504 1.105,-9.707 3.315,-12.61 2.21,-2.904 5.33,-4.355 9.36,-4.355 3.986,0 7.605,1.322 10.855,3.965 l 0.65,-0.325 -0.455,-4.94 c -3.77,-2.08 -7.605,-3.12 -11.505,-3.12 -5.59,0 -9.924,1.809 -13,5.428 -3.077,3.617 -4.615,8.785 -4.615,15.502 0,6.89 1.603,12.198 4.81,15.925 3.206,3.726 7.756,5.59 13.65,5.59 4.376,0 8.167,-1.04 11.375,-3.12"
                     id="path3748" />
                </g>
                <g
                   id="g3750">
                  <path
                     fill="#000000"
                     fill-rule="nonzero"
                     d="m 66.86641,217.27997 -0.715,-4.225 -0.78,-0.195 c -2.168,1.43 -4.248,2.145 -6.24,2.145 -1.474,0 -2.665,-0.413 -3.575,-1.235 -0.91,-0.823 -1.365,-1.82 -1.365,-2.99 0,-1.17 0.465,-2.112 1.397,-2.828 0.932,-0.714 2.373,-1.527 4.323,-2.437 1.69,-0.78 3.044,-1.485 4.062,-2.112 1.018,-0.628 1.895,-1.462 2.633,-2.502 0.736,-1.04 1.105,-2.32 1.105,-3.835 0,-1.604 -0.412,-3.099 -1.235,-4.486 -0.824,-1.387 -2.037,-2.503 -3.64,-3.347 -1.604,-0.845 -3.51,-1.268 -5.72,-1.268 -3.034,0 -5.915,0.715 -8.645,2.146 l 0.65,4.419 0.585,0.39 c 1.213,-1.04 2.524,-1.842 3.932,-2.405 1.408,-0.564 2.741,-0.845 3.998,-0.845 1.603,0 2.902,0.444 3.9,1.333 0.996,0.888 1.495,1.939 1.495,3.152 0,1.17 -0.466,2.113 -1.397,2.828 -0.933,0.714 -2.373,1.527 -4.323,2.437 -1.69,0.78 -3.055,1.485 -4.095,2.112 -1.04,0.628 -1.929,1.484 -2.665,2.568 -0.737,1.083 -1.105,2.427 -1.105,4.03 0,2.513 0.92,4.571 2.762,6.175 1.842,1.603 4.344,2.405 7.508,2.405 2.47,0 4.853,-0.477 7.15,-1.43"
                     id="path3752" />
                </g>
                <g
                   id="g3754">
                  <path
                     fill="#000000"
                     fill-rule="nonzero"
                     d="m 80.71111,153.85857 h -5.135 l 0.325,44.587 -0.325,61.138 h 5.2 l -0.39,-59.529 z"
                     id="path3756" />
                </g>
                <g
                   id="g3758">
                  <path
                     fill="#000000"
                     fill-rule="nonzero"
                     d="m 115.03041,189.39567 v -0.585 c -0.694,-0.218 -2.232,-0.52 -4.615,-0.91 l -0.65,0.26 c -4.594,5.416 -8.71,10.746 -12.35,15.989 v 0.455 l 9.295,10.985 1.755,2.665 h 5.785 l -11.7,-13.65 c 2.99,-4.029 7.15,-9.1 12.48,-15.209 m -18.525,-0.91 h -5.135 l 0.325,12.675 -0.26,32.499 5.135,0.455 -0.39,-32.565 z"
                     id="path3760" />
                </g>
                <g
                   id="g3762">
                  <path
                     fill="#000000"
                     fill-rule="nonzero"
                     d="m 136.02512,217.27997 -0.715,-4.225 -0.78,-0.195 c -2.168,1.43 -4.248,2.145 -6.24,2.145 -1.474,0 -2.665,-0.413 -3.575,-1.235 -0.91,-0.823 -1.365,-1.82 -1.365,-2.99 0,-1.17 0.465,-2.112 1.397,-2.828 0.932,-0.714 2.373,-1.527 4.323,-2.437 1.69,-0.78 3.044,-1.485 4.062,-2.112 1.018,-0.628 1.895,-1.462 2.633,-2.502 0.736,-1.04 1.105,-2.32 1.105,-3.835 0,-1.604 -0.412,-3.099 -1.235,-4.486 -0.824,-1.387 -2.037,-2.503 -3.64,-3.347 -1.604,-0.845 -3.51,-1.268 -5.72,-1.268 -3.034,0 -5.915,0.715 -8.645,2.146 l 0.65,4.419 0.585,0.39 c 1.213,-1.04 2.524,-1.842 3.932,-2.405 1.408,-0.564 2.741,-0.845 3.998,-0.845 1.603,0 2.902,0.444 3.9,1.333 0.996,0.888 1.495,1.939 1.495,3.152 0,1.17 -0.466,2.113 -1.397,2.828 -0.933,0.714 -2.373,1.527 -4.323,2.437 -1.69,0.78 -3.055,1.485 -4.095,2.112 -1.04,0.628 -1.929,1.484 -2.665,2.568 -0.737,1.083 -1.105,2.427 -1.105,4.03 0,2.513 0.92,4.571 2.762,6.175 1.842,1.603 4.344,2.405 7.508,2.405 2.47,0 4.853,-0.477 7.15,-1.43"
                     id="path3764" />
                </g>
                <g
                   id="g3766">
                  <path
                     fill="#000000"
                     fill-rule="nonzero"
                     d="m 161.31021,218.25507 2.47,0.065 0.13,-3.12 -16.64,-23.075 h 11.765 l 4.875,0.455 0.325,-0.455 -0.455,-3.769 -5.98,0.129 h -13 l -3.055,-0.129 v 3.12 l 16.705,23.204 h -11.245 l -4.615,-0.52 -0.39,0.455 0.455,3.77 5.33,-0.13 z"
                     id="path3768" />
                </g>
                <g
                   id="g3770">
                  <path
                     fill="#000000"
                     fill-rule="nonzero"
                     d="m 176.22821,212.98997 c -1.453,-1.387 -2.396,-3.358 -2.828,-5.915 l 14.301,0.39 0.13,0.78 c 0,2.253 -0.553,3.954 -1.659,5.102 -1.104,1.148 -2.59,1.723 -4.452,1.723 -2.21,0 -4.041,-0.694 -5.492,-2.08 m -3.152,-9.555 c 0,-3.597 0.747,-6.381 2.242,-8.352 1.495,-1.972 3.715,-2.958 6.662,-2.958 2.99,0 5.893,0.976 8.71,2.925 l 0.585,-0.324 -0.52,-4.356 c -3.12,-1.603 -6.132,-2.405 -9.035,-2.405 -4.247,0 -7.562,1.355 -9.945,4.063 -2.384,2.708 -3.574,6.423 -3.574,11.147 0,4.81 1.256,8.602 3.769,11.375 2.513,2.773 5.915,4.16 10.205,4.16 3.25,0 5.774,-0.986 7.573,-2.957 1.797,-1.973 2.697,-4.713 2.697,-8.223 l -0.13,-2.99 -1.105,-0.845 -18.134,-0.065 z"
                     id="path3772" />
                </g>
                <g
                   id="g3774">
                  <path
                     fill="#000000"
                     fill-rule="nonzero"
                     d="m 215.32491,218.19007 v -5.005 l -0.585,-0.195 c -0.737,0.216 -1.517,0.325 -2.34,0.325 -2.817,0 -5.33,-2.405 -7.54,-7.215 l -0.064,-4.55 0.324,-13.065 h -5.135 l 0.391,12.61 -0.325,16.835 4.939,0.455 -0.064,-6.11 h 0.389 c 2.297,4.03 5.071,6.045 8.321,6.045 0.519,0 1.082,-0.044 1.689,-0.13"
                     id="path3776" />
                </g>
                <g
                   id="g3778">
                  <path
                     fill="#000000"
                     fill-rule="nonzero"
                     d="m 225.20481,212.30727 c -1.604,-1.885 -2.405,-4.604 -2.405,-8.157 0,-3.683 0.736,-6.544 2.21,-8.58 1.472,-2.037 3.466,-3.055 5.98,-3.055 2.47,0 4.853,1.322 7.151,3.965 l 0.129,4.68 -0.129,12.35 c -2.384,1.082 -4.508,1.625 -6.371,1.625 -2.774,0 -4.962,-0.943 -6.565,-2.828 m 17.68,-17.452 c 0.043,-0.91 0.195,-1.549 0.455,-1.918 0.261,-0.368 0.736,-0.552 1.43,-0.552 0.693,0 1.43,0.13 2.21,0.39 l 0.52,-0.455 -0.455,-2.925 c -1.257,-0.737 -2.492,-1.17 -3.705,-1.3 -2.687,0.26 -4.203,1.776 -4.55,4.55 h -0.455 c -2.427,-2.124 -4.788,-3.619 -7.085,-4.485 -4.29,0 -7.572,1.311 -9.848,3.933 -2.274,2.621 -3.412,6.358 -3.412,11.212 0,4.896 1.268,8.699 3.803,11.407 2.535,2.708 6.077,4.063 10.627,4.063 1.95,0 3.856,-0.218 5.721,-0.65 l -0.131,15.535 5.135,0.455 -0.39,-32.565 z"
                     id="path3780" />
                </g>
                <g
                   id="g3782">
                  <path
                     fill="#000000"
                     fill-rule="nonzero"
                     d="m 256.79361,198.91817 c -0.39,-0.455 -0.585,-1.138 -0.585,-2.048 0,-1.43 0.4,-2.546 1.203,-3.348 0.801,-0.801 1.873,-1.202 3.217,-1.202 2.383,0 4.811,1.537 7.28,4.616 l 0.196,5.329 -9.425,-2.275 c -0.868,-0.26 -1.495,-0.617 -1.886,-1.072 m 13.748,17.777 c 1.625,-1.387 2.438,-3.294 2.438,-5.72 0,-0.738 -0.13,-3.402 -0.391,-7.995 -0.26,-4.593 -0.39,-7.28 -0.39,-8.06 0,-0.953 0.152,-1.614 0.455,-1.982 0.303,-0.369 0.823,-0.553 1.56,-0.553 0.65,0 1.387,0.13 2.21,0.39 l 0.52,-0.455 -0.52,-2.924 c -1.257,-0.738 -2.492,-1.17 -3.704,-1.301 -1.344,0.131 -2.417,0.606 -3.218,1.43 -0.803,0.823 -1.225,1.951 -1.268,3.38 h -0.455 c -2.339,-2.383 -4.659,-4.008 -6.955,-4.875 -2.903,0 -5.167,0.725 -6.792,2.178 -1.625,1.451 -2.437,3.434 -2.437,5.947 0,3.683 2.014,6.001 6.045,6.955 l 10.529,2.47 0.065,4.225 c 0,1.69 -0.445,2.99 -1.333,3.9 -0.888,0.91 -2.156,1.365 -3.801,1.365 -2.818,0 -5.873,-1.43 -9.165,-4.29 l -0.521,0.26 -0.649,3.705 c 3.595,2.686 7.3,4.03 11.114,4.03 2.816,0 5.038,-0.694 6.663,-2.08"
                     id="path3784" />
                </g>
                <g
                   id="g3786">
                  <path
                     fill="#000000"
                     fill-rule="nonzero"
                     d="m 102.05051,170.23847 c 0,-0.364 -0.104,-0.654 -0.312,-0.871 -0.208,-0.217 -0.485,-0.325 -0.832,-0.325 -0.347,0 -0.62,0.104 -0.819,0.312 -0.2,0.208 -0.299,0.485 -0.299,0.832 0,0.346 0.108,0.628 0.325,0.845 0.217,0.217 0.507,0.325 0.871,0.325 0.711,0 1.066,-0.373 1.066,-1.118 m -2.028,-15.99 -1.976,-0.182 1.352,9.438 0.104,2.522 1.924,0.182 -1.3,-9.204 z"
                     id="path3788" />
                </g>
                <g
                   id="g3790">
                  <path
                     fill="#000000"
                     fill-rule="nonzero"
                     d="m 119.30101,165.46697 c 0.373,-0.39 0.55,-0.88 0.533,-1.469 l -0.026,-0.338 -1.066,-6.681 -0.156,-2.731 -2.002,-0.181 1.404,8.891 0.026,0.338 c 0.035,0.537 -0.139,0.807 -0.52,0.807 -0.503,0 -1.222,-0.651 -2.158,-1.95 -0.936,-1.3 -1.976,-3.147 -3.12,-5.539 l -0.13,-2.366 -2.002,-0.181 1.43,8.891 0.026,0.338 c 0,0.537 -0.182,0.807 -0.546,0.807 -0.503,0 -1.209,-0.634 -2.119,-1.899 -0.91,-1.265 -1.928,-3.068 -3.055,-5.408 l -0.13,-2.548 -1.976,-0.181 1.352,9.437 0.13,2.523 1.924,0.181 -0.832,-5.849 h 0.234 c 0.884,1.507 1.673,2.725 2.366,3.652 0.693,0.928 1.413,1.678 2.158,2.249 h 0.286 c 0.607,-0.139 1.096,-0.402 1.469,-0.793 0.373,-0.39 0.55,-0.88 0.533,-1.469 l -0.026,-0.338 -0.52,-3.301 h 0.234 c 0.849,1.49 1.629,2.699 2.34,3.627 0.71,0.926 1.439,1.685 2.184,2.274 h 0.286 c 0.607,-0.139 1.096,-0.402 1.469,-0.793"
                     id="path3792" />
                </g>
                <g
                   id="g3794">
                  <path
                     fill="#000000"
                     fill-rule="nonzero"
                     d="m 128.14131,156.38007 c 0.598,0.555 1.057,1.296 1.378,2.224 0.32,0.926 0.481,1.954 0.481,3.081 0,0.866 -0.078,1.485 -0.234,1.858 -0.156,0.373 -0.338,0.56 -0.546,0.56 -0.208,0 -0.568,-0.286 -1.079,-0.859 -0.512,-0.572 -1.092,-1.404 -1.742,-2.496 -0.65,-1.092 -1.287,-2.375 -1.911,-3.847 l -0.13,-0.884 1.664,-0.469 c 0.814,0 1.521,0.277 2.119,0.832 m 3.627,5.798 c 0,-1.265 -0.234,-2.483 -0.702,-3.652 -0.468,-1.17 -1.166,-2.171 -2.093,-3.003 -0.928,-0.832 -2.041,-1.344 -3.341,-1.535 h -0.104 l -1.404,0.312 -0.286,-2.106 -0.13,-2.834 -1.976,-0.182 2.002,14.326 0.13,2.522 1.898,0.182 -0.728,-5.355 h 0.286 c 1.265,2.217 2.634,4.02 4.108,5.407 h 0.364 c 1.317,-0.797 1.976,-2.157 1.976,-4.082"
                     id="path3796" />
                </g>
                <g
                   id="g3798">
                  <path
                     fill="#000000"
                     fill-rule="nonzero"
                     d="m 141.28391,163.53047 -0.182,-0.078 -0.208,0.026 c -0.832,-0.122 -1.63,-0.689 -2.392,-1.703 -0.763,-1.015 -1.647,-2.769 -2.652,-5.266 l -0.104,-2.261 -1.976,-0.182 1.352,9.438 0.13,2.522 1.898,0.182 -0.78,-5.72 h 0.182 c 1.283,2.565 2.773,4.463 4.472,5.694 l 0.65,-0.052 z"
                     id="path3800" />
                </g>
                <g
                   id="g3802">
                  <path
                     fill="#000000"
                     fill-rule="nonzero"
                     d="m 144.53391,162.90647 c -0.624,-1.196 -0.936,-2.808 -0.936,-4.836 0,-0.901 0.121,-1.556 0.364,-1.963 0.242,-0.408 0.65,-0.611 1.222,-0.611 1.161,0 2.055,0.606 2.679,1.82 0.624,1.213 0.935,2.843 0.935,4.888 0,0.884 -0.121,1.521 -0.364,1.911 -0.242,0.39 -0.642,0.585 -1.195,0.585 -1.18,0 -2.081,-0.598 -2.705,-1.794 m 6.11,-0.572 c 0,-1.595 -0.226,-3.007 -0.676,-4.239 -0.451,-1.23 -1.104,-2.205 -1.963,-2.924 -0.858,-0.719 -1.876,-1.131 -3.055,-1.235 l -0.234,0.026 c -0.988,0.191 -1.721,0.606 -2.197,1.248 -0.477,0.641 -0.715,1.586 -0.715,2.834 0,1.56 0.234,2.951 0.702,4.173 0.468,1.222 1.139,2.188 2.015,2.899 0.875,0.711 1.893,1.101 3.055,1.17 h 0.208 c 1.907,-0.312 2.86,-1.63 2.86,-3.952"
                     id="path3804" />
                </g>
                <g
                   id="g3806">
                  <path
                     fill="#000000"
                     fill-rule="nonzero"
                     d="m 161.51291,164.12807 c 0,-0.919 -0.382,-2.027 -1.145,-3.328 l -3.899,-6.63 h -2.133 l -1.3,11.856 1.951,0.182 0.078,-2.08 0.649,-7.878 h 0.183 l 2.912,5.096 c 0.571,0.988 0.857,1.803 0.857,2.444 0,0.555 -0.208,1.135 -0.624,1.742 l 0.053,0.26 1.819,0.416 c 0.399,-0.693 0.599,-1.387 0.599,-2.08"
                     id="path3808" />
                </g>
                <g
                   id="g3810">
                  <path
                     fill="#000000"
                     fill-rule="nonzero"
                     d="m 166.89472,170.23847 c 0,-0.364 -0.104,-0.654 -0.312,-0.871 -0.209,-0.217 -0.486,-0.325 -0.833,-0.325 -0.346,0 -0.619,0.104 -0.818,0.312 -0.2,0.208 -0.299,0.485 -0.299,0.832 0,0.346 0.108,0.628 0.325,0.845 0.216,0.217 0.506,0.325 0.871,0.325 0.711,0 1.066,-0.373 1.066,-1.118 m -2.028,-15.99 -1.976,-0.182 1.352,9.438 0.104,2.522 1.924,0.182 -1.3,-9.204 z"
                     id="path3812" />
                </g>
                <g
                   id="g3814">
                  <path
                     fill="#000000"
                     fill-rule="nonzero"
                     d="m 170.01381,156.14667 0.754,0.182 c 0.295,0 0.736,-0.104 1.326,-0.312 0.693,-0.191 1.127,-0.286 1.3,-0.286 0.745,0 1.296,0.247 1.651,0.74 0.355,0.494 0.559,1.34 0.612,2.535 l 0.337,0.157 0.936,-0.52 c -0.069,-1.578 -0.412,-2.761 -1.027,-3.55 -0.616,-0.788 -1.469,-1.182 -2.561,-1.182 -0.416,0 -1.1,0.147 -2.054,0.442 -0.797,0.276 -1.395,0.416 -1.794,0.416 -0.572,0 -1.101,-0.252 -1.585,-0.754 h -0.208 l -0.625,0.571 7.436,9.88 -3.614,-0.025 -1.794,-0.208 -0.155,0.155 0.389,1.742 0.182,0.13 1.664,-0.13 4.94,-0.025 0.65,0.363 0.598,-0.571 z"
                     id="path3816" />
                </g>
                <g
                   id="g3818">
                  <path
                     fill="#000000"
                     fill-rule="nonzero"
                     d="m 187.53832,171.22677 -0.052,-0.234 c -1.734,-1.37 -3.19,-2.47 -4.368,-3.302 l -0.208,0.025 -0.546,0.781 c 1.647,1.369 3.05,2.626 4.212,3.77 l 0.233,-0.026 z m -5.083,-14.248 c 0.511,0.571 1.092,1.403 1.742,2.496 0.65,1.092 1.286,2.374 1.91,3.848 l 0.027,0.156 0.026,0.624 -1.612,0.571 c -0.798,0 -1.495,-0.272 -2.093,-0.818 -0.599,-0.546 -1.054,-1.283 -1.365,-2.21 -0.312,-0.928 -0.468,-1.955 -0.468,-3.081 0,-0.867 0.078,-1.491 0.233,-1.872 0.157,-0.382 0.329,-0.572 0.521,-0.572 0.208,0 0.567,0.286 1.079,0.858 m 4.433,0.025 -0.13,-2.756 -1.976,-0.181 0.754,5.33 h -0.261 c -1.264,-2.22 -2.626,-4.022 -4.081,-5.408 h -0.364 c -1.317,0.745 -1.977,2.105 -1.977,4.082 0,1.248 0.235,2.461 0.703,3.639 0.467,1.179 1.157,2.18 2.067,3.003 0.91,0.824 2.015,1.339 3.314,1.547 h 0.13 l 1.613,-0.597 1.248,0.624 0.234,-0.157 z"
                     id="path3820" />
                </g>
                <g
                   id="g3822">
                  <path
                     fill="#000000"
                     fill-rule="nonzero"
                     d="m 198.17201,165.42787 -0.52,-1.533 -0.416,-0.078 c -0.555,0.606 -1.135,0.91 -1.742,0.91 -1.04,0 -1.863,-0.547 -2.47,-1.639 -0.607,-1.092 -0.91,-2.583 -0.91,-4.472 0,-1.075 0.121,-1.841 0.364,-2.3 0.243,-0.46 0.632,-0.69 1.17,-0.69 0.953,0 1.837,0.789 2.652,2.366 h 0.286 l 0.624,-0.883 c -0.537,-0.919 -1.097,-1.613 -1.677,-2.08 -0.581,-0.468 -1.261,-0.816 -2.041,-1.04 h -0.312 c -1.005,0.173 -1.737,0.567 -2.196,1.182 -0.46,0.615 -0.69,1.652 -0.69,3.108 0,2.322 0.507,4.228 1.521,5.719 1.014,1.491 2.526,2.237 4.537,2.237 l 1.664,-0.521 z"
                     id="path3824" />
                </g>
                <g
                   id="g3826">
                  <path
                     fill="#000000"
                     fill-rule="nonzero"
                     d="m 203.24242,170.23847 c 0,-0.364 -0.104,-0.654 -0.312,-0.871 -0.209,-0.217 -0.486,-0.325 -0.833,-0.325 -0.346,0 -0.619,0.104 -0.818,0.312 -0.2,0.208 -0.299,0.485 -0.299,0.832 0,0.346 0.108,0.628 0.325,0.845 0.216,0.217 0.506,0.325 0.871,0.325 0.711,0 1.066,-0.373 1.066,-1.118 m -2.028,-15.99 -1.976,-0.182 1.352,9.438 0.104,2.522 1.924,0.182 -1.3,-9.204 z"
                     id="path3828" />
                </g>
                <g
                   id="g3830">
                  <path
                     fill="#000000"
                     fill-rule="nonzero"
                     d="m 213.20041,171.20037 -0.053,-0.234 c -1.733,-1.37 -3.189,-2.47 -4.368,-3.302 l -0.208,0.026 -0.546,0.78 c 1.647,1.369 3.051,2.626 4.212,3.77 l 0.234,-0.026 z m -5.772,-8.294 c -0.624,-1.196 -0.936,-2.808 -0.936,-4.836 0,-0.901 0.12,-1.556 0.363,-1.963 0.243,-0.408 0.651,-0.611 1.223,-0.611 1.161,0 2.054,0.606 2.678,1.82 0.624,1.213 0.935,2.843 0.935,4.888 0,0.884 -0.121,1.521 -0.363,1.911 -0.243,0.39 -0.642,0.585 -1.196,0.585 -1.179,0 -2.08,-0.598 -2.704,-1.794 m 6.11,-0.572 c 0,-1.595 -0.226,-3.007 -0.677,-4.238 -0.45,-1.231 -1.104,-2.206 -1.963,-2.925 -0.857,-0.719 -1.876,-1.131 -3.054,-1.235 l -0.235,0.026 c -0.987,0.191 -1.72,0.606 -2.196,1.248 -0.478,0.641 -0.715,1.586 -0.715,2.834 0,1.56 0.233,2.951 0.701,4.173 0.469,1.222 1.14,2.188 2.016,2.899 0.875,0.711 1.893,1.101 3.055,1.17 h 0.208 c 1.906,-0.312 2.86,-1.63 2.86,-3.952"
                     id="path3832" />
                </g>
                <g
                   id="g3834">
                  <path
                     fill="#000000"
                     fill-rule="nonzero"
                     d="m 222.35172,165.58417 -0.546,-1.768 -0.312,-0.104 c -0.676,0.763 -1.37,1.144 -2.08,1.144 -0.52,0 -0.966,-0.186 -1.339,-0.559 -0.373,-0.373 -0.559,-0.793 -0.559,-1.261 0,-0.382 0.13,-0.711 0.39,-0.988 0.259,-0.277 0.675,-0.624 1.248,-1.04 0.745,-0.537 1.312,-1.035 1.703,-1.495 0.39,-0.459 0.585,-1.062 0.585,-1.807 0,-0.693 -0.192,-1.326 -0.572,-1.897 -0.381,-0.573 -0.911,-1.024 -1.586,-1.353 -0.676,-0.329 -1.448,-0.494 -2.314,-0.494 -0.902,0.122 -1.768,0.416 -2.6,0.884 l 0.494,1.846 0.286,0.13 c 0.727,-0.988 1.559,-1.482 2.496,-1.482 0.589,0 1.074,0.19 1.456,0.572 0.381,0.381 0.571,0.815 0.571,1.3 0,0.451 -0.142,0.832 -0.428,1.144 -0.287,0.312 -0.724,0.667 -1.313,1.066 -0.728,0.52 -1.283,1.001 -1.664,1.443 -0.382,0.443 -0.572,1.018 -0.572,1.729 0,0.711 0.203,1.344 0.611,1.898 0.406,0.555 0.953,0.988 1.638,1.3 0.684,0.313 1.426,0.459 2.222,0.442 0.746,-0.138 1.474,-0.355 2.185,-0.65"
                     id="path3836" />
                </g>
                <g
                   id="g3838">
                  <path
                     fill="#000000"
                     fill-rule="nonzero"
                     d="m 234.05101,158.90257 c 1.144,-1.872 2.14,-3.389 2.989,-4.55 l -0.103,-0.182 -1.613,-0.312 -0.181,0.104 c -0.85,1.283 -1.786,2.894 -2.809,4.836 l 0.053,0.337 c 2.356,1.456 3.536,2.818 3.536,4.082 0,0.59 -0.208,0.885 -0.624,0.885 -0.572,0 -1.335,-0.62 -2.288,-1.859 -0.954,-1.239 -2.037,-3.108 -3.25,-5.603 l -0.078,-2.392 -1.977,-0.182 2.21,15.704 0.078,2.522 1.977,0.182 -1.691,-11.96 h 0.26 c 0.989,1.525 1.837,2.734 2.548,3.627 0.711,0.893 1.447,1.581 2.211,2.067 l 0.39,0.026 c 1.421,-0.295 2.132,-1.145 2.132,-2.548 0,-1.681 -1.257,-3.276 -3.77,-4.784"
                     id="path3840" />
                </g>
                <g
                   id="g3842">
                  <path
                     fill="#000000"
                     fill-rule="nonzero"
                     d="m 247.70131,171.20037 -0.053,-0.234 c -1.733,-1.37 -3.189,-2.47 -4.368,-3.302 l -0.208,0.026 -0.546,0.78 c 1.647,1.369 3.051,2.626 4.212,3.77 l 0.234,-0.026 z m -5.772,-8.294 c -0.624,-1.196 -0.936,-2.808 -0.936,-4.836 0,-0.901 0.12,-1.556 0.363,-1.963 0.243,-0.408 0.651,-0.611 1.223,-0.611 1.161,0 2.054,0.606 2.678,1.82 0.624,1.213 0.935,2.843 0.935,4.888 0,0.884 -0.121,1.521 -0.363,1.911 -0.243,0.39 -0.642,0.585 -1.196,0.585 -1.179,0 -2.08,-0.598 -2.704,-1.794 m 6.11,-0.572 c 0,-1.595 -0.226,-3.007 -0.677,-4.238 -0.45,-1.231 -1.104,-2.206 -1.963,-2.925 -0.857,-0.719 -1.876,-1.131 -3.054,-1.235 l -0.235,0.026 c -0.987,0.191 -1.72,0.606 -2.196,1.248 -0.478,0.641 -0.716,1.586 -0.716,2.834 0,1.56 0.234,2.951 0.702,4.173 0.469,1.222 1.14,2.188 2.016,2.899 0.875,0.711 1.893,1.101 3.055,1.17 h 0.208 c 1.906,-0.312 2.86,-1.63 2.86,-3.952"
                     id="path3844" />
                </g>
                <g
                   id="g3846">
                  <path
                     fill="#000000"
                     fill-rule="nonzero"
                     d="m 257.65842,163.53047 -0.182,-0.078 -0.208,0.026 c -0.832,-0.122 -1.63,-0.689 -2.392,-1.703 -0.763,-1.015 -1.647,-2.769 -2.652,-5.266 l -0.104,-2.261 -1.976,-0.182 1.352,9.438 0.13,2.522 1.898,0.182 -0.78,-5.72 h 0.182 c 1.283,2.565 2.773,4.463 4.472,5.694 l 0.65,-0.052 z"
                     id="path3848" />
                </g>
                <g
                   id="g3850">
                  <path
                     fill="#000000"
                     fill-rule="nonzero"
                     d="m 267.174,157.00407 -0.104,-2.756 -1.976,-0.182 0.806,5.825 h -0.182 c -1.612,-2.775 -3.12,-4.716 -4.524,-5.825 h -0.287 c -0.606,0.139 -1.095,0.399 -1.468,0.78 -0.373,0.382 -0.551,0.867 -0.534,1.456 l 0.027,0.339 1.066,6.708 0.208,2.729 1.924,0.156 -1.378,-8.709 -0.053,-0.546 c -0.017,-0.521 0.165,-0.781 0.546,-0.781 0.503,0 1.214,0.633 2.133,1.898 0.918,1.265 1.933,3.068 3.042,5.408 l 0.13,2.522 1.924,0.182 z"
                     id="path3852" />
                </g>
                <g
                   id="g3854">
                  <path
                     fill="#000000"
                     fill-rule="nonzero"
                     d="m 277.62621,165.58417 -0.546,-1.768 -0.312,-0.104 c -0.676,0.763 -1.37,1.144 -2.08,1.144 -0.52,0 -0.966,-0.186 -1.339,-0.559 -0.373,-0.373 -0.559,-0.793 -0.559,-1.261 0,-0.382 0.13,-0.711 0.39,-0.988 0.259,-0.277 0.675,-0.624 1.248,-1.04 0.745,-0.537 1.312,-1.035 1.703,-1.495 0.39,-0.459 0.585,-1.062 0.585,-1.807 0,-0.693 -0.192,-1.326 -0.572,-1.897 -0.381,-0.573 -0.911,-1.024 -1.586,-1.353 -0.676,-0.329 -1.448,-0.494 -2.314,-0.494 -0.902,0.122 -1.768,0.416 -2.6,0.884 l 0.494,1.846 0.286,0.13 c 0.727,-0.988 1.559,-1.482 2.496,-1.482 0.589,0 1.074,0.19 1.456,0.572 0.381,0.381 0.571,0.815 0.571,1.3 0,0.451 -0.142,0.832 -0.428,1.144 -0.287,0.312 -0.724,0.667 -1.313,1.066 -0.728,0.52 -1.283,1.001 -1.664,1.443 -0.382,0.443 -0.572,1.018 -0.572,1.729 0,0.711 0.203,1.344 0.611,1.898 0.406,0.555 0.953,0.988 1.638,1.3 0.684,0.313 1.426,0.459 2.222,0.442 0.746,-0.138 1.474,-0.355 2.185,-0.65"
                     id="path3856" />
                </g>
              </g>
            </g>
          </g>
        </g>
      </g>
    </g>
  </g>
</svg>
